<?xml version="1.0" standalone="no"?>
<!DOCTYPE svg PUBLIC "-//W3C//DTD SVG 20010904//EN"
 "http://www.w3.org/TR/2001/REC-SVG-20010904/DTD/svg10.dtd">
<svg version="1.0" xmlns="http://www.w3.org/2000/svg"
 width="500.000000pt" height="276.000000pt" viewBox="0 0 500.000000 276.000000"
 preserveAspectRatio="xMidYMid meet">

<g transform="translate(0.000000,276.000000) scale(0.100000,-0.100000)"
fill="#000000" stroke="none">
<path d="M0 2121 l0 -639 36 -7 c109 -20 184 -83 184 -154 0 -18 5 -31 13 -31
6 1 64 44 127 97 l115 96 10 -36 c14 -50 22 -54 53 -25 55 50 314 250 318 245
2 -2 21 -88 42 -191 20 -102 39 -186 42 -186 3 0 108 86 233 190 125 105 230
190 231 190 7 0 17 -36 51 -188 37 -170 156 -694 176 -780 15 -61 -4 -75 158
121 62 76 115 136 117 134 4 -4 61 -133 180 -406 83 -191 84 -195 75 -245 -7
-41 -6 -56 7 -78 13 -22 21 -26 37 -20 11 4 45 6 75 6 108 -3 126 -4 175 -3
28 1 64 1 80 0 17 0 53 0 80 0 28 1 64 0 80 -1 17 -1 56 2 87 5 41 5 70 3 104
-9 26 -9 49 -16 50 -16 2 0 12 17 24 38 28 49 77 82 122 82 34 0 37 2 42 38 7
38 46 490 46 523 0 24 24 24 58 0 15 -11 113 -73 218 -139 l192 -120 6 28 c8
42 61 75 118 75 35 0 53 6 69 22 l22 22 -61 143 c-33 79 -91 215 -127 303
-176 423 -177 425 -220 425 -41 0 -86 -22 -100 -50 -14 -27 -16 -28 -77 -23
-103 9 -187 69 -192 137 -2 20 1 36 7 36 6 0 34 -18 63 -41 45 -34 58 -40 84
-34 27 6 30 10 30 46 0 50 24 61 99 46 41 -8 58 -7 74 3 18 11 23 10 35 -9 8
-11 20 -21 27 -21 30 0 73 -53 107 -132 82 -187 262 -597 286 -650 29 -65 42
-61 42 15 0 26 4 47 10 47 5 0 32 -13 58 -30 27 -16 52 -30 55 -30 5 0 10 18
52 215 38 175 114 517 126 557 11 42 15 44 181 73 53 9 104 22 114 30 16 11
14 14 -23 33 -23 12 -47 27 -54 34 -26 25 -172 68 -230 68 -76 0 -125 -10
-107 -22 8 -6 4 -7 -12 -3 -17 4 -62 -7 -125 -29 -114 -41 -182 -47 -208 -18
-10 10 -17 23 -17 28 0 5 -10 14 -22 19 -33 15 -28 36 12 52 l35 13 -35 -5
c-19 -3 -52 -8 -72 -11 -38 -7 -74 9 -62 27 10 17 -13 9 -30 -10 -21 -23 -67
-35 -96 -26 -29 9 -25 19 23 67 24 24 63 72 87 108 24 36 60 84 80 107 27 31
36 49 33 67 -4 17 1 27 15 35 11 6 23 22 26 37 4 15 18 41 32 59 13 17 24 39
24 49 0 9 11 22 25 28 24 11 29 19 26 46 -2 11 10 16 34 13 10 -1 35 66 35 94
0 23 26 18 47 -10 17 -23 20 -24 56 -11 36 12 62 42 80 89 6 16 -96 17 -2048
17 l-2055 0 0 -639z m3453 -508 c-7 -2 -19 -2 -25 0 -7 3 -2 5 12 5 14 0 19
-2 13 -5z"/>
<path d="M4685 2668 c0 -73 -5 -106 -23 -152 -28 -73 -70 -135 -118 -173 -27
-22 -35 -34 -30 -49 8 -24 77 -55 99 -43 11 6 19 5 24 -4 9 -16 55 -29 101
-29 21 0 32 -4 32 -14 0 -16 25 -17 106 -8 38 5 52 11 60 28 5 12 20 22 37 24
l27 3 0 255 0 254 -157 0 -158 0 0 -92z"/>
<path d="M3800 2170 c-27 -17 0 -24 33 -7 30 15 31 16 7 16 -14 0 -32 -3 -40
-9z"/>
<path d="M4980 2030 c-8 -5 -12 -12 -9 -15 4 -3 12 1 19 10 14 17 11 19 -10 5z"/>
<path d="M4830 1995 c0 -8 4 -15 10 -15 5 0 7 7 4 15 -4 8 -8 15 -10 15 -2 0
-4 -7 -4 -15z"/>
<path d="M4838 1963 c7 -3 16 -2 19 1 4 3 -2 6 -13 5 -11 0 -14 -3 -6 -6z"/>
<path d="M4365 1543 c-9 -32 -23 -78 -30 -103 -17 -56 -75 -274 -75 -283 0 -3
16 1 37 9 21 9 57 14 87 12 39 -2 59 2 86 19 47 29 95 36 152 24 70 -16 104
-1 112 50 4 22 4 44 1 50 -4 5 -28 9 -54 9 -123 0 -219 73 -261 198 -13 39
-28 72 -32 72 -4 0 -15 -26 -23 -57z"/>
<path d="M760 1539 c0 -5 5 -7 10 -4 6 3 10 8 10 11 0 2 -4 4 -10 4 -5 0 -10
-5 -10 -11z"/>
<path d="M727 1533 c-14 -13 -6 -29 14 -30 18 -2 19 0 8 15 -8 9 -14 18 -15
20 0 1 -4 -1 -7 -5z"/>
<path d="M676 1491 c-4 -7 -5 -15 -2 -18 9 -9 19 4 14 18 -4 11 -6 11 -12 0z"/>
<path d="M760 1479 c0 -6 -9 -8 -20 -4 -24 8 -26 -7 -4 -26 13 -10 17 -10 25
2 9 15 12 39 4 39 -3 0 -5 -5 -5 -11z"/>
<path d="M840 1480 c-12 -8 -12 -10 3 -16 21 -8 35 2 21 16 -5 5 -15 6 -24 0z"/>
<path d="M1270 1481 c0 -5 11 -11 25 -13 20 -4 23 -3 14 8 -13 16 -39 19 -39
5z"/>
<path d="M1213 1462 c-12 -20 -1 -48 15 -38 18 11 42 -6 42 -30 0 -13 -4 -24
-10 -24 -5 0 -10 5 -10 10 0 6 -7 10 -15 10 -21 0 -19 -15 9 -47 l24 -28 12
42 c12 39 11 43 -16 82 -16 22 -31 41 -34 41 -3 0 -10 -8 -17 -18z"/>
<path d="M635 1460 c-3 -5 1 -10 9 -10 9 0 16 5 16 10 0 6 -4 10 -9 10 -6 0
-13 -4 -16 -10z"/>
<path d="M787 1448 c-8 -27 -6 -29 21 -21 23 6 32 25 10 21 -7 -2 -12 3 -10
10 4 22 -15 13 -21 -10z"/>
<path d="M1350 1440 c-7 -14 -7 -20 0 -20 5 0 10 7 10 15 0 8 5 15 10 15 6 0
10 -4 10 -10 0 -5 5 -10 10 -10 6 0 10 7 10 15 0 22 -38 18 -50 -5z"/>
<path d="M593 1420 c-3 -11 -9 -17 -14 -14 -5 3 -9 0 -9 -5 0 -6 11 -11 25
-11 14 0 25 2 25 4 0 2 3 11 6 19 3 8 -2 17 -11 21 -12 4 -19 0 -22 -14z"/>
<path d="M860 1430 c-12 -7 -12 -12 -3 -21 10 -10 14 -9 19 5 8 22 2 27 -16
16z"/>
<path d="M1168 1419 c-10 -5 -18 -17 -18 -24 0 -8 8 -15 18 -15 12 0 17 8 17
25 0 14 0 25 0 25 0 0 -8 -5 -17 -11z"/>
<path d="M1417 1413 c-4 -6 -25 -14 -47 -18 -33 -6 -41 -12 -50 -41 -7 -19
-10 -38 -8 -42 5 -15 68 8 68 24 0 11 -6 13 -20 9 -14 -5 -20 -2 -20 10 0 23
27 30 56 15 31 -17 48 -3 36 30 -5 14 -11 19 -15 13z"/>
<path d="M663 1403 c-24 -5 -30 -18 -13 -28 6 -4 17 -1 25 5 17 14 35 5 35
-17 0 -9 -6 -13 -15 -9 -17 6 -18 0 -5 -29 7 -17 9 -17 9 -2 1 9 5 17 10 17 8
0 25 49 19 55 -8 7 -46 12 -65 8z"/>
<path d="M531 1381 c-9 -6 -10 -14 -4 -25 8 -15 11 -14 21 9 12 26 7 31 -17
16z"/>
<path d="M814 1375 c-5 -11 -10 -13 -19 -5 -16 13 -45 -18 -42 -48 2 -26 10
-28 27 -6 8 8 9 14 4 12 -5 -2 -10 2 -12 7 -2 6 4 12 13 13 10 2 19 -5 22 -17
6 -23 18 -27 29 -10 3 6 0 15 -7 20 -11 7 -12 12 -1 29 7 12 8 20 2 20 -6 0
-13 -7 -16 -15z"/>
<path d="M870 1371 c0 -6 5 -13 10 -16 6 -3 10 1 10 9 0 9 -4 16 -10 16 -5 0
-10 -4 -10 -9z"/>
<path d="M1098 1366 c-13 -9 -14 -16 -6 -24 15 -15 38 -4 38 19 0 22 -8 23
-32 5z"/>
<path d="M385 1361 c-3 -5 -1 -12 5 -16 5 -3 10 1 10 9 0 18 -6 21 -15 7z"/>
<path d="M573 1345 c-3 -9 -3 -18 0 -21 9 -9 27 6 27 22 0 19 -19 18 -27 -1z"/>
<path d="M611 1314 l-23 -38 24 -17 c27 -21 37 -17 17 7 -12 14 -10 19 11 36
21 17 22 21 8 34 -14 14 -17 12 -37 -22z"/>
<path d="M864 1325 c-6 -14 11 -45 25 -45 3 0 7 11 7 24 2 28 -24 44 -32 21z"/>
<path d="M1178 1329 c-9 -5 -15 -16 -12 -24 9 -22 -5 -38 -22 -24 -9 7 -14 8
-14 1 0 -6 -7 -12 -15 -14 -14 -3 -13 -6 1 -27 16 -22 18 -23 30 -7 17 24 59
17 59 -8 0 -11 -6 -21 -12 -23 -7 -3 -13 3 -13 13 0 13 -3 15 -11 7 -9 -9 -7
-22 8 -52 11 -22 23 -38 26 -34 4 3 2 14 -3 23 -7 14 -5 19 10 23 17 4 20 14
20 60 0 32 -5 59 -12 63 -8 5 -9 2 -5 -9 9 -23 -10 -31 -22 -10 -6 12 -6 25 0
36 11 20 10 20 -13 6z"/>
<path d="M1430 1331 c0 -6 -7 -11 -15 -11 -19 0 -19 -7 -1 -25 10 -10 16 -11
25 -2 14 14 14 34 1 42 -5 3 -10 1 -10 -4z"/>
<path d="M1043 1319 c-6 -6 -9 -17 -7 -24 3 -7 1 -16 -5 -20 -6 -3 -11 -1 -11
5 0 6 -5 8 -11 5 -20 -13 -3 -28 34 -29 29 -1 37 3 37 16 0 9 5 20 11 23 6 5
4 12 -8 21 -22 17 -26 17 -40 3z"/>
<path d="M335 1290 c-3 -5 1 -10 9 -10 9 0 16 5 16 10 0 6 -4 10 -9 10 -6 0
-13 -4 -16 -10z"/>
<path d="M530 1296 c0 -2 9 -6 20 -9 11 -3 18 -1 14 4 -5 9 -34 13 -34 5z"/>
<path d="M290 1277 c0 -8 9 -22 20 -32 22 -20 27 -7 10 26 -12 22 -30 25 -30
6z"/>
<path d="M650 1282 c0 -5 7 -15 15 -22 8 -7 15 -8 15 -2 0 5 -7 15 -15 22 -8
7 -15 8 -15 2z"/>
<path d="M783 1273 c-9 -3 -10 -10 -3 -23 10 -19 1 -31 -30 -43 -8 -3 0 -6 18
-6 33 -1 38 4 46 52 5 27 -3 32 -31 20z"/>
<path d="M1370 1269 c0 -21 -26 -43 -40 -34 -8 5 -8 11 1 21 7 9 8 14 1 14
-13 0 -72 -79 -72 -97 0 -7 5 -13 10 -13 18 0 10 -22 -10 -27 -11 -3 -20 -9
-20 -14 0 -5 18 1 40 12 23 12 40 28 39 38 0 10 -2 11 -6 4 -8 -20 -23 -15
-23 7 0 11 7 23 15 26 20 8 45 -13 45 -37 0 -12 7 -19 19 -19 30 0 37 21 13
41 -26 21 -28 35 -6 47 13 7 14 13 6 28 -10 16 -11 16 -12 3z"/>
<path d="M1440 1260 c-12 -7 -12 -13 -4 -27 14 -23 28 -22 32 1 5 24 -10 37
-28 26z"/>
<path d="M550 1250 c0 -5 5 -10 11 -10 5 0 7 5 4 10 -3 6 -8 10 -11 10 -2 0
-4 -4 -4 -10z"/>
<path d="M834 1249 c-3 -6 -1 -16 5 -22 9 -9 14 -8 21 3 9 15 4 30 -10 30 -5
0 -12 -5 -16 -11z"/>
<path d="M726 1241 c-3 -5 5 -8 19 -7 14 0 25 4 25 9 0 10 -38 9 -44 -2z"/>
<path d="M950 1219 l0 -32 20 26 c11 14 20 28 20 31 0 3 -9 6 -20 6 -16 0 -20
-7 -20 -31z"/>
<path d="M586 1227 c3 -10 9 -15 12 -12 3 3 0 11 -7 18 -10 9 -11 8 -5 -6z"/>
<path d="M650 1221 c0 -6 5 -13 10 -16 6 -3 10 1 10 9 0 9 -4 16 -10 16 -5 0
-10 -4 -10 -9z"/>
<path d="M1028 1212 c-21 -4 -34 -40 -20 -54 7 -7 16 -6 29 3 24 17 17 56 -9
51z"/>
<path d="M695 1200 c-3 -5 1 -10 9 -10 9 0 16 5 16 10 0 6 -4 10 -9 10 -6 0
-13 -4 -16 -10z"/>
<path d="M901 1193 c-16 -17 -11 -25 8 -14 7 5 12 13 10 19 -2 6 -10 4 -18 -5z"/>
<path d="M1086 1189 c3 -6 3 -14 -2 -18 -5 -3 -18 -23 -28 -44 -19 -37 -19
-38 0 -52 39 -31 54 -37 54 -20 0 8 -4 15 -10 15 -16 0 -12 46 5 60 8 7 22 10
30 6 21 -8 19 7 -6 38 -20 25 -58 38 -43 15z"/>
<path d="M1427 1163 c-5 -27 23 -62 51 -63 17 0 15 11 -5 26 -16 11 -17 13 -2
19 25 9 12 45 -16 45 -17 0 -24 -7 -28 -27z"/>
<path d="M970 1119 c0 -12 25 -22 41 -17 6 2 0 9 -15 16 -16 7 -26 8 -26 1z"/>
<path d="M1115 1100 c-3 -5 1 -10 9 -10 10 0 13 -6 10 -15 -4 -9 0 -15 9 -15
8 0 18 -6 20 -12 3 -7 6 -3 6 9 1 35 -39 67 -54 43z"/>
<path d="M1329 1102 c-40 -11 -41 -11 -25 -28 32 -32 5 -92 -29 -64 -19 16
-19 34 0 27 8 -4 17 -2 20 2 9 15 -24 21 -53 10 -27 -11 -27 -11 -4 -20 13 -5
22 -17 22 -29 0 -17 6 -20 40 -20 42 0 66 24 54 53 -3 8 -1 18 5 21 6 4 8 13
4 21 -3 8 0 15 6 15 6 0 11 4 11 8 0 8 -28 10 -51 4z"/>
<path d="M1400 1075 c-15 -19 -9 -49 12 -53 19 -4 32 27 22 52 -8 20 -18 20
-34 1z"/>
<path d="M1480 1061 c0 -11 -3 -28 -7 -38 -6 -15 -5 -16 9 -5 13 10 18 10 24
1 4 -7 -1 -19 -13 -29 -42 -33 -40 -90 3 -90 30 0 32 26 3 33 -13 3 -18 10
-14 17 4 7 16 9 27 7 18 -5 19 -2 13 36 -10 56 -22 87 -35 87 -5 0 -10 -9 -10
-19z"/>
<path d="M980 1051 c0 -5 10 -11 22 -13 30 -4 37 -38 9 -45 -12 -3 -21 -12
-21 -20 0 -8 5 -11 11 -8 19 12 59 -4 59 -25 0 -10 -4 -22 -10 -25 -15 -10
-12 -35 5 -35 10 0 15 10 15 30 0 34 19 41 27 10 9 -34 26 -23 19 12 -8 41
-24 58 -35 39 -13 -20 -34 -2 -27 23 6 25 -1 39 -31 55 -26 13 -43 14 -43 2z"/>
<path d="M1130 1016 c0 -8 3 -22 6 -31 5 -13 8 -14 15 -3 14 21 10 48 -6 48
-8 0 -15 -6 -15 -14z"/>
<path d="M1201 994 c-14 -32 -11 -38 14 -21 13 10 15 18 8 31 -8 15 -11 14
-22 -10z"/>
<path d="M1399 964 c35 -15 48 -13 36 5 -3 6 -21 11 -38 11 l-32 -1 34 -15z"/>
<path d="M4190 940 c0 -5 5 -10 11 -10 5 0 7 5 4 10 -3 6 -8 10 -11 10 -2 0
-4 -4 -4 -10z"/>
<path d="M996 931 c-4 -7 -5 -15 -2 -18 9 -9 19 4 14 18 -4 11 -6 11 -12 0z"/>
<path d="M1274 917 c-9 -19 -7 -26 12 -40 25 -18 46 -5 25 16 -19 19 -13 39
12 35 14 -2 23 -11 25 -25 2 -14 10 -23 20 -22 11 0 12 3 5 6 -7 2 -13 12 -13
20 0 9 6 13 15 9 8 -3 15 -2 15 3 0 11 -36 21 -75 21 -22 0 -33 -7 -41 -23z"/>
<path d="M1198 914 c-16 -8 -28 -21 -28 -29 0 -19 8 -19 27 0 20 21 38 8 19
-14 -18 -20 -20 -49 -6 -71 9 -13 12 -13 21 3 14 24 32 12 19 -13 -12 -22 -3
-50 16 -50 10 0 13 7 9 23 -4 12 -2 34 4 48 5 15 6 31 0 40 -7 11 -9 11 -9 -3
0 -23 -29 -23 -37 -2 -3 9 -1 25 5 35 8 12 8 20 2 24 -6 4 -8 11 -5 16 9 13
-6 11 -37 -7z"/>
<path d="M1409 893 c-1 -5 -2 -19 -3 -33 -1 -20 -7 -26 -40 -31 -35 -6 -55
-21 -56 -43 0 -5 6 -3 14 3 8 7 27 11 43 9 22 -2 28 -8 28 -28 0 -16 -6 -26
-17 -28 -11 -2 -18 3 -18 12 0 21 -16 20 -24 -1 -14 -36 56 -45 96 -13 33 25
45 64 18 57 -27 -7 -30 14 -6 34 19 16 19 17 3 43 -17 25 -35 34 -38 19z"/>
<path d="M1535 880 c3 -5 8 -10 11 -10 2 0 4 5 4 10 0 6 -5 10 -11 10 -5 0 -7
-4 -4 -10z"/>
<path d="M1506 835 c8 -48 20 -65 45 -65 12 0 19 7 19 20 0 13 -7 20 -20 20
-14 0 -26 11 -36 33 l-14 32 6 -40z"/>
<path d="M1545 850 c-3 -5 -1 -10 4 -10 6 0 11 5 11 10 0 6 -2 10 -4 10 -3 0
-8 -4 -11 -10z"/>
<path d="M1840 809 c0 -5 5 -7 10 -4 6 3 10 8 10 11 0 2 -4 4 -10 4 -5 0 -10
-5 -10 -11z"/>
<path d="M1900 806 c0 -2 7 -6 15 -10 8 -3 15 -1 15 4 0 6 -7 10 -15 10 -8 0
-15 -2 -15 -4z"/>
<path d="M1800 786 c0 -8 10 -16 22 -18 13 -2 24 -11 27 -23 3 -17 1 -18 -13
-6 -14 11 -16 11 -16 -2 0 -16 24 -30 34 -20 13 13 5 47 -16 64 -25 23 -38 24
-38 5z"/>
<path d="M1925 771 c-3 -5 -1 -12 5 -16 12 -7 30 2 30 16 0 12 -27 12 -35 0z"/>
<path d="M1480 730 c-24 -34 -25 -44 -5 -60 12 -10 18 -10 30 0 16 13 21 35 6
26 -5 -3 -12 1 -15 10 -4 12 0 15 17 12 31 -4 36 -52 8 -70 -12 -7 -21 -21
-21 -31 0 -26 17 -12 39 31 32 62 31 82 -6 97 -31 13 -33 13 -53 -15z"/>
<path d="M1770 747 c0 -10 8 -17 18 -17 9 0 13 4 7 8 -5 4 -13 11 -17 16 -5 5
-8 2 -8 -7z"/>
<path d="M1890 730 c0 -28 2 -30 20 -20 24 13 27 32 3 23 -12 -5 -15 -2 -10
10 3 9 2 17 -3 17 -6 0 -10 -14 -10 -30z"/>
<path d="M1964 732 c4 -7 1 -12 -9 -12 -9 0 -13 -4 -10 -10 3 -5 13 -10 21
-10 17 0 19 26 2 36 -7 4 -8 3 -4 -4z"/>
<path d="M3210 722 c0 -5 7 -9 15 -9 8 0 12 4 9 9 -3 4 -9 8 -15 8 -5 0 -9 -4
-9 -8z"/>
<path d="M1735 709 c-4 -6 -5 -13 -2 -16 7 -7 27 6 27 18 0 12 -17 12 -25 -2z"/>
<path d="M3330 694 c-10 -12 -8 -14 14 -14 28 0 35 14 12 23 -8 3 -20 -1 -26
-9z"/>
<path d="M1791 683 c-1 -12 -10 -24 -22 -28 -16 -5 -18 -10 -9 -21 10 -11 14
-11 26 1 17 16 44 9 44 -11 0 -17 -17 -18 -23 -1 -4 8 -6 7 -6 -3 0 -8 7 -24
16 -35 13 -16 15 -17 10 -2 -4 9 -2 17 3 17 13 0 13 60 0 80 -6 10 -10 11 -10
3 0 -19 -18 -16 -23 5 -4 13 -5 12 -6 -5z"/>
<path d="M3386 645 l-27 -53 22 -44 c14 -28 24 -38 27 -28 2 8 11 23 19 32 9
10 12 25 8 38 -7 21 -20 19 -20 -3 0 -19 -29 -14 -33 6 -5 25 17 49 39 42 11
-4 19 -2 19 4 0 5 2 15 5 23 3 7 -3 18 -13 24 -16 10 -21 5 -46 -41z"/>
<path d="M1930 674 c0 -8 5 -12 10 -9 6 4 8 11 5 16 -9 14 -15 11 -15 -7z"/>
<path d="M1980 676 c0 -8 5 -18 10 -21 6 -3 10 3 10 14 0 12 -4 21 -10 21 -5
0 -10 -6 -10 -14z"/>
<path d="M1700 659 c0 -11 -4 -17 -10 -14 -5 3 -10 1 -10 -4 0 -6 11 -11 25
-11 14 0 25 4 25 9 0 5 3 16 6 25 4 12 0 16 -15 16 -15 0 -21 -6 -21 -21z"/>
<path d="M1582 646 c-12 -26 -7 -56 9 -56 15 0 20 23 11 54 l-8 28 -12 -26z"/>
<path d="M3326 655 c4 -8 11 -15 16 -15 6 0 5 6 -2 15 -7 8 -14 15 -16 15 -2
0 -1 -7 2 -15z"/>
<path d="M1880 634 c-13 -33 -13 -44 2 -44 6 0 3 -7 -8 -16 -18 -15 -18 -15 5
-2 14 8 27 21 29 28 3 7 0 10 -7 6 -6 -4 -11 -1 -11 8 0 21 27 20 38 -1 6 -10
16 -14 27 -9 23 8 5 30 -36 45 -27 9 -31 8 -39 -15z"/>
<path d="M3224 639 c-3 -6 -2 -15 4 -21 6 -6 11 -2 15 11 5 22 -7 29 -19 10z"/>
<path d="M3485 629 c5 -14 2 -25 -6 -30 -10 -6 -6 -9 14 -9 33 0 37 29 6 48
-19 12 -20 11 -14 -9z"/>
<path d="M1984 616 c-1 -17 5 -26 19 -30 22 -6 40 4 21 11 -7 2 -10 13 -7 23
4 15 0 20 -13 20 -13 0 -19 -8 -20 -24z"/>
<path d="M1650 593 c0 -22 2 -25 10 -13 13 20 13 40 0 40 -5 0 -10 -12 -10
-27z"/>
<path d="M1693 585 c-7 -20 2 -29 21 -22 9 4 13 13 10 22 -8 19 -23 19 -31 0z"/>
<path d="M1744 583 c-1 -10 -4 -30 -8 -44 -6 -21 -3 -27 18 -37 25 -11 37 0
16 13 -17 11 -11 37 10 42 20 5 20 7 4 24 -21 24 -40 24 -40 2z"/>
<path d="M3196 584 c-10 -27 -7 -42 11 -48 11 -5 22 -1 29 9 17 23 68 16 72
-9 3 -15 0 -18 -17 -13 -12 3 -23 2 -26 -3 -8 -12 17 -27 58 -34 l38 -7 -24
48 c-23 45 -28 48 -68 51 -24 1 -48 7 -55 13 -8 6 -14 5 -18 -7z"/>
<path d="M3554 585 c-12 -31 23 -48 45 -21 10 12 8 17 -8 25 -26 14 -31 14
-37 -4z"/>
<path d="M1542 578 c-16 -16 -15 -38 2 -38 17 0 27 22 17 38 -5 9 -10 9 -19 0z"/>
<path d="M1916 557 c-17 -12 -17 -14 -2 -20 23 -9 20 -36 -6 -47 -21 -8 -20
-9 10 -9 17 -1 32 2 33 7 8 83 2 96 -35 69z"/>
<path d="M1976 554 c-9 -23 10 -42 26 -26 10 10 9 16 -4 28 -14 14 -16 14 -22
-2z"/>
<path d="M2035 560 c-5 -8 -2 -18 8 -25 20 -15 22 -35 4 -35 -16 0 -16 -35 0
-51 12 -12 33 -4 33 12 0 5 -7 9 -16 9 -8 0 -12 5 -9 10 4 6 11 7 17 4 12 -7
3 27 -17 65 -9 18 -14 20 -20 11z"/>
<path d="M1669 529 c-10 -6 -7 -9 14 -9 29 0 35 5 14 13 -8 3 -20 1 -28 -4z"/>
<path d="M1790 525 c7 -8 16 -15 21 -15 5 0 6 7 3 15 -4 8 -13 15 -21 15 -13
0 -13 -3 -3 -15z"/>
<path d="M3490 525 c7 -8 10 -24 7 -35 -3 -11 -2 -20 3 -20 15 0 17 59 2 65
-22 8 -25 6 -12 -10z"/>
<path d="M1880 520 c-20 -12 -5 -24 16 -12 9 5 12 12 7 15 -5 3 -15 2 -23 -3z"/>
<path d="M3190 481 c0 -37 19 -50 37 -25 12 16 12 19 -1 22 -9 2 -16 10 -16
18 0 8 -4 14 -10 14 -5 0 -10 -13 -10 -29z"/>
<path d="M3450 489 c0 -5 5 -7 10 -4 6 3 10 8 10 11 0 2 -4 4 -10 4 -5 0 -10
-5 -10 -11z"/>
<path d="M1690 481 c8 -6 18 -7 22 -4 5 2 15 -1 23 -7 9 -7 15 -8 15 -2 0 12
-24 22 -53 22 -17 0 -19 -2 -7 -9z"/>
<path d="M1800 481 c0 -6 5 -13 10 -16 6 -3 10 1 10 9 0 9 -4 16 -10 16 -5 0
-10 -4 -10 -9z"/>
<path d="M1980 480 c20 -13 40 -13 40 0 0 6 -12 10 -27 10 -22 0 -25 -2 -13
-10z"/>
<path d="M1850 464 c0 -8 5 -12 10 -9 6 3 10 10 10 16 0 5 -4 9 -10 9 -5 0
-10 -7 -10 -16z"/>
<path d="M1930 452 c-22 -10 -19 -46 5 -50 16 -3 18 -1 8 9 -7 7 -13 17 -13
21 0 15 29 8 40 -9 11 -17 11 -17 6 0 -3 10 0 17 7 17 8 0 6 4 -3 10 -17 11
-29 11 -50 2z"/>
<path d="M2009 427 c-1 -7 -1 -17 0 -22 0 -6 -9 -15 -21 -20 -32 -15 -32 -31
-1 -30 30 0 40 -24 14 -33 -10 -3 -12 0 -8 12 4 10 3 15 -3 11 -6 -3 -10 -13
-10 -21 0 -23 47 -17 64 8 20 28 20 38 1 38 -17 0 -20 16 -5 25 5 3 7 12 4 20
-7 18 -34 28 -35 12z"/>
<path d="M1861 416 c-9 -11 -6 -13 14 -13 20 0 23 2 14 13 -6 8 -13 14 -14 14
-1 0 -8 -6 -14 -14z"/>
<path d="M2070 427 c0 -5 7 -21 15 -37 16 -31 45 -41 45 -15 0 8 -6 15 -14 15
-8 0 -22 10 -30 22 -9 12 -16 19 -16 15z"/>
<path d="M3180 380 c0 -21 4 -28 14 -24 30 12 30 54 0 54 -9 0 -14 -11 -14
-30z"/>
<path d="M1883 375 c1 -11 9 -20 17 -20 10 0 14 -8 12 -23 -2 -12 2 -22 7 -22
6 0 11 18 11 40 0 22 -5 40 -11 40 -5 0 -7 -4 -4 -10 3 -5 0 -10 -9 -10 -8 0
-17 6 -20 13 -3 6 -5 3 -3 -8z"/>
<path d="M2078 325 c-13 -29 -6 -40 19 -31 15 6 15 9 3 16 -8 5 -11 12 -7 16
3 4 13 1 21 -5 11 -9 16 -9 21 0 8 12 -11 29 -33 29 -7 0 -18 -11 -24 -25z"/>
<path d="M3188 323 c-26 -7 -22 -20 8 -27 31 -8 39 -3 31 19 -7 15 -9 16 -39
8z"/>
</g>
</svg>
