<?xml version="1.0" standalone="no"?>
<!DOCTYPE svg PUBLIC "-//W3C//DTD SVG 20010904//EN"
 "http://www.w3.org/TR/2001/REC-SVG-20010904/DTD/svg10.dtd">
<svg version="1.0" xmlns="http://www.w3.org/2000/svg"
 width="489.000000pt" height="510.000000pt" viewBox="0 0 489.000000 510.000000"
 preserveAspectRatio="xMidYMid meet">

<g transform="translate(0.000000,510.000000) scale(0.100000,-0.100000)"
fill="#000000" stroke="none">
<path d="M0 3955 l0 -1145 23 0 c81 0 183 -63 208 -128 7 -19 13 -22 21 -14 7
7 37 12 68 12 142 0 241 -149 213 -321 -6 -35 -10 -64 -9 -65 0 -1 22 -4 48
-7 l47 -7 201 168 c111 92 209 167 218 167 12 0 20 -18 30 -67 l14 -66 65 54
c80 68 110 70 128 9 21 -68 90 -371 170 -745 35 -161 38 -170 71 -170 91 0
200 -119 244 -267 16 -54 34 -60 81 -28 96 67 235 73 321 13 l27 -19 42 31
c55 39 132 42 198 6 l45 -23 54 25 c70 31 145 28 193 -10 l33 -25 56 30 c50
27 62 29 135 25 65 -3 91 -10 134 -33 29 -16 61 -40 71 -52 l18 -23 22 72 c41
135 98 221 171 259 77 39 202 21 289 -41 l28 -20 6 23 c3 12 6 48 6 79 0 87
39 195 96 270 l49 63 11 115 c7 63 20 213 30 332 12 144 22 219 30 222 6 2 51
-20 100 -49 48 -30 91 -52 96 -49 16 10 8 70 -16 114 -13 25 -54 117 -91 205
-37 88 -78 185 -92 215 -14 30 -38 91 -54 135 -16 44 -36 94 -43 110 -14 31
-90 211 -146 348 -18 43 -39 85 -48 93 -29 30 -118 -5 -124 -48 -3 -20 -8 -23
-48 -22 -25 1 -75 6 -113 11 -61 8 -72 13 -112 53 -51 50 -68 84 -63 131 4 48
30 48 85 0 76 -68 125 -70 133 -6 9 66 12 68 105 60 61 -5 88 -3 104 6 22 14
26 13 123 -48 45 -28 47 -32 193 -369 164 -378 280 -643 301 -686 26 -56 40
-54 52 5 6 29 43 194 82 367 39 173 91 405 115 514 24 109 50 204 57 211 14
12 139 41 220 49 26 3 62 12 80 19 l33 14 -40 20 c-22 11 -89 38 -150 59 -153
53 -204 51 -402 -16 -176 -59 -254 -67 -291 -27 -12 13 -22 31 -22 40 0 10
-11 19 -27 22 -16 4 -55 13 -88 22 -34 9 -90 16 -129 15 -114 -4 -122 19 -38
104 31 33 85 100 119 149 33 50 73 101 87 114 19 18 26 35 26 62 0 27 5 38 18
41 11 3 23 22 30 46 7 23 24 54 37 68 14 15 25 35 25 46 0 10 9 26 20 35 11
10 20 23 20 30 0 7 5 13 10 13 6 0 10 7 10 16 0 12 7 15 30 12 28 -4 30 -2 31
26 1 17 2 38 3 46 2 8 3 23 4 33 3 31 49 21 67 -14 12 -23 21 -29 33 -23 9 4
31 12 49 18 22 7 37 23 52 53 12 24 21 46 21 48 0 3 -976 5 -2170 5 l-2170 0
0 -1145z"/>
<path d="M3927 4410 c6 -22 17 -21 78 5 29 13 29 13 -27 14 -52 1 -56 -1 -51
-19z"/>
<path d="M4651 3678 c-28 -91 -85 -291 -125 -438 -25 -91 -61 -223 -82 -295
-20 -71 -45 -164 -54 -205 -40 -172 -62 -235 -87 -255 -24 -20 -24 -21 -6 -36
21 -18 88 -59 96 -59 3 0 8 19 12 43 12 78 37 139 74 180 59 65 140 92 205 67
23 -8 28 -6 40 18 21 39 64 77 119 102 l47 22 0 328 0 328 -44 11 c-56 14
-116 81 -148 164 -13 31 -26 57 -30 57 -3 0 -11 -15 -17 -32z"/>
</g>
</svg>
